# xmcd
#
# Track frame offsets:
#	150
#	7097
#	14898
#	26290
#	34785
#	36568
#	46858
#	63023
#	81696
#	93474
#	106495
#	119187
#	134365
#
# Disc length: 1995 seconds
# Revision: 0
# Processed by: cddbd v1.5.2PL0 Copyright (c) Steve Scherf et al.
# Submitted via: dBpowerAMP V12.0
#
DISCID=b807c90d
DTITLE=Liam Hayes - Slurrup
DYEAR=2014
DGENRE=
TTITLE0=Slurrup
TTITLE1=One Way Out
TTITLE2=Nothing Wrong
TTITLE3=Get It Right
TTITLE4=Theme From Mindball
TTITLE5=Fokus
TTITLE6=Greenfield
TTITLE7=Keys To Heaven
TTITLE8=Long Day
TTITLE9=Channel
TTITLE10=Outhouse
TTITLE11=August Fourteen
TTITLE12=Fight Magic With Magic
EXTD=
EXTT0=
EXTT1=
EXTT2=
EXTT3=
EXTT4=
EXTT5=
EXTT6=
EXTT7=
EXTT8=
EXTT9=
EXTT10=
EXTT11=
EXTT12=
PLAYORDER=
